<svg id="Capa_1" data-name="Capa 1" xmlns="http://www.w3.org/2000/svg" xmlns:xlink="http://www.w3.org/1999/xlink" viewBox="0 0 1920 1080"><defs><style>.cls-1{fill:url(#Degradado_sin_nombre_2);}.cls-2{fill:#999;opacity:0.83;}.cls-3,.cls-4,.cls-6{fill:#b3b3b3;}.cls-3{opacity:0.71;}.cls-4{opacity:0.72;}.cls-5{opacity:0.61;}.cls-7{fill:#fff;}</style><linearGradient id="Degradado_sin_nombre_2" x1="167.23" y1="1000.11" x2="1882.77" y2="4.44" gradientUnits="userSpaceOnUse"><stop offset="0" stop-color="blue"/><stop offset="0.14" stop-color="#3700ff"/><stop offset="0.32" stop-color="#7300ff"/><stop offset="0.48" stop-color="#a500ff"/><stop offset="0.64" stop-color="#c0f"/><stop offset="0.78" stop-color="#e800ff"/><stop offset="0.91" stop-color="#f900ff"/><stop offset="1" stop-color="#f0f"/></linearGradient></defs><rect class="cls-1" width="1920" height="1080"/><path class="cls-2" d="M532.5,332.52l4.43-2.69,2.44-20.91,12.17-7.4c1.84-1.12,2.6-3.21,1.7-4.68s-3.1-1.76-4.93-.64l-12.18,7.4-19.69-7.45-4.42,2.7,14.15,10.81L514,317.07l-5.47-1.53-3.32,2,6,4.86,1.56,7.55,3.32-2,1.17-5.57,12.17-7.4Z"/><path class="cls-2" d="M762.42,406.53l6.07-3.69.9-32.68L786.07,360a5.15,5.15,0,1,0-5.35-8.8L764,361.37,734.6,347.14l-6.06,3.69,21.85,18.84-16.68,10.15-8.12-3.1L721,379.49l9.27,8.41L733.52,400l4.55-2.77,1-8.63,16.68-10.14Z"/><path class="cls-2" d="M191.87,143.05l9.87-6,5.62-46.38,27.16-16.52c4.09-2.49,5.81-7.13,3.83-10.38s-6.89-3.87-11-1.38L200.2,78.9,156.44,62.56l-9.88,6L178,92.42l-27.16,16.52-12.17-3.34-7.41,4.51,13.29,10.71,3.4,16.73,7.41-4.51L158,120.7l27.16-16.52Z"/><path class="cls-2" d="M764.84,920.06l6.87-4.18L774,881l18.9-11.5c2.85-1.73,3.91-5.18,2.36-7.71s-5.08-3.18-7.94-1.45l-18.9,11.5-32-14L729.55,862,753,881.25l-18.9,11.49-8.87-3-5.15,3.14L730,901.5l3.07,12.78,5.15-3.14,1.44-9.24,18.9-11.49Z"/><path class="cls-2" d="M798.75,644l4.46-2.72,2.57-20.92,12.27-7.47c1.86-1.13,2.63-3.22,1.74-4.69s-3.11-1.74-5-.61l-12.28,7.47-19.76-7.35-4.46,2.72,14.18,10.74-12.28,7.47-5.5-1.5-3.35,2,6,4.82,1.53,7.54,3.34-2,1.2-5.57,12.28-7.47Z"/><path class="cls-2" d="M1241.84,332.06l6.87-4.18L1251,293l18.9-11.5c2.85-1.73,3.91-5.18,2.36-7.71s-5.08-3.18-7.94-1.45l-18.9,11.5-32-14-6.87,4.18L1230,293.25l-18.9,11.49-8.87-3-5.15,3.14,9.93,8.59,3.07,12.78,5.15-3.14,1.44-9.24,18.9-11.49Z"/><path class="cls-2" d="M1329.81,573.86l7.53-4.58,5.55-33.26,20.71-12.59c3.12-1.9,4.53-5.26,3.16-7.53s-5-2.55-8.14-.65l-20.7,12.59-32.09-10.36-7.53,4.58L1321,538.15l-20.71,12.59-9-2-5.65,3.44,9.57,7.25,2,11.83,5.65-3.43,2.33-8.89,20.7-12.59Z"/><path class="cls-2" d="M1108.84,821.06l6.87-4.18L1118,782l18.9-11.5c2.85-1.73,3.91-5.18,2.36-7.71s-5.08-3.18-7.94-1.45l-18.9,11.5-32-14-6.87,4.18L1097,782.25l-18.9,11.49-8.87-3-5.15,3.14,9.93,8.59,3.07,12.78,5.15-3.14,1.44-9.24,18.9-11.49Z"/><path class="cls-2" d="M1511.26,419l6.35-3.86,7.15-24,17.45-10.62c2.64-1.6,4-4.09,3.13-5.58s-3.76-1.39-6.39.21l-17.45,10.62-24.58-4.67-6.34,3.86,16.64,9.49-17.45,10.62-6.94-.69-4.76,2.9,7,4.33.63,8.19,4.76-2.89,2.58-6.47,17.45-10.62Z"/><path class="cls-2" d="M964.89,217.77l9.22-5.61,6-42,25.36-15.43c3.83-2.33,5.49-6.55,3.73-9.46s-6.29-3.37-10.12-1l-25.36,15.43-40.09-14-9.22,5.61,28.56,21-25.36,15.43-11.18-2.8-6.91,4.21,12.06,9.45,2.84,15,6.92-4.21,2.66-11.2,25.36-15.43Z"/><path class="cls-2" d="M1353.5,936.52l4.43-2.69,2.44-20.91,12.17-7.4c1.84-1.12,2.6-3.21,1.7-4.68s-3.1-1.76-4.93-.64l-12.18,7.4-19.69-7.45-4.42,2.7,14.15,10.81L1335,921.07l-5.47-1.53-3.32,2,6,4.86,1.56,7.55,3.32-2,1.17-5.57,12.17-7.4Z"/><path class="cls-3" d="M436,212.38H396.46v5.23H443v-5.23Zm4.7-2.62c-.63-10.64-7.56-19.35-16.66-21.46a5.85,5.85,0,0,0,.37-2.07c0-2.88-2.09-5.23-4.65-5.23s-4.65,2.35-4.65,5.23a6.08,6.08,0,0,0,.37,2.07c-9.1,2.11-16,10.82-16.66,21.46ZM419.73,193c6.87,0,12.73,4.78,15.13,11.53H404.61C407,197.76,412.87,193,419.73,193Z"/><path class="cls-3" d="M63.7,496H24.19v5.23H70.73V496Zm4.7-2.62c-.62-10.64-7.56-19.35-16.66-21.47a5.76,5.76,0,0,0,.38-2.06,5,5,0,0,0-4.66-5.23c-2.56,0-4.65,2.35-4.65,5.23a6,6,0,0,0,.37,2.06c-9.1,2.12-16,10.83-16.66,21.47ZM47.46,476.63c6.87,0,12.73,4.79,15.13,11.54H32.34C34.73,481.42,40.6,476.63,47.46,476.63Z"/><path class="cls-3" d="M1037.7,657H998.19v5.23h46.54V657Zm4.7-2.62c-.62-10.64-7.56-19.35-16.66-21.47a5.76,5.76,0,0,0,.38-2.06,5,5,0,0,0-4.66-5.23c-2.56,0-4.65,2.35-4.65,5.23a6,6,0,0,0,.37,2.06c-9.1,2.12-16,10.83-16.66,21.47Zm-20.94-16.79c6.87,0,12.73,4.79,15.13,11.54h-30.25C1008.73,642.42,1014.6,637.63,1021.46,637.63Z"/><path class="cls-3" d="M1639.7,514h-39.51v5.23h46.54V514Zm4.7-2.62c-.62-10.64-7.56-19.35-16.66-21.47a5.76,5.76,0,0,0,.38-2.06,5,5,0,0,0-4.66-5.23c-2.56,0-4.65,2.35-4.65,5.23a6,6,0,0,0,.37,2.06c-9.1,2.12-16,10.83-16.66,21.47Zm-20.94-16.79c6.87,0,12.73,4.79,15.13,11.54h-30.25C1610.73,499.42,1616.6,494.63,1623.46,494.63Z"/><path class="cls-3" d="M1660.7,862h-39.51v5.23h46.54V862Zm4.7-2.62c-.62-10.64-7.56-19.35-16.66-21.47a5.76,5.76,0,0,0,.38-2.06,5,5,0,0,0-4.66-5.23c-2.56,0-4.65,2.35-4.65,5.23a6,6,0,0,0,.37,2.06c-9.1,2.12-16,10.83-16.66,21.47Zm-20.94-16.79c6.87,0,12.73,4.79,15.13,11.54h-30.25C1631.73,847.42,1637.6,842.63,1644.46,842.63Z"/><path class="cls-3" d="M1743.7,345h-39.51v5.23h46.54V345Zm4.7-2.62c-.62-10.64-7.56-19.35-16.66-21.47a5.76,5.76,0,0,0,.38-2.06,5,5,0,0,0-4.66-5.23c-2.56,0-4.65,2.35-4.65,5.23a6,6,0,0,0,.37,2.06c-9.1,2.12-16,10.83-16.66,21.47Zm-20.94-16.79c6.87,0,12.73,4.79,15.13,11.54h-30.25C1714.73,330.42,1720.6,325.63,1727.46,325.63Z"/><path class="cls-3" d="M274.7,913H235.19v5.23h46.54V913Zm4.7-2.62c-.62-10.64-7.56-19.35-16.66-21.47a5.76,5.76,0,0,0,.38-2.06,5,5,0,0,0-4.66-5.23c-2.56,0-4.65,2.35-4.65,5.23a6,6,0,0,0,.37,2.06c-9.1,2.12-16,10.83-16.66,21.47Zm-20.94-16.79c6.87,0,12.73,4.79,15.13,11.54H243.34C245.73,898.42,251.6,893.63,258.46,893.63Z"/><path class="cls-4" d="M369.94,445.48c3.59,0,6.48-4.24,6.48-9.5s-2.89-9.49-6.48-9.49-6.47,4.24-6.47,9.49S366.36,445.48,369.94,445.48Zm0-12.66c1.19,0,2.16,1.42,2.16,3.16s-1,3.17-2.16,3.17-2.15-1.43-2.15-3.17S368.76,432.82,369.94,432.82Zm25.89-9.49H378.57v25.31H361.31V417H357v47.46h4.31V455h38.84v9.49h4.31V436C404.46,429,400.6,423.33,395.83,423.33Zm4.32,25.31H382.89v-19h12.94c2.38,0,4.32,2.84,4.32,6.32Z"/><path class="cls-4" d="M1573.67,214.71c3.59,0,6.48-4.24,6.48-9.49s-2.89-9.5-6.48-9.5-6.47,4.24-6.47,9.5S1570.09,214.71,1573.67,214.71Zm0-12.66c1.19,0,2.16,1.43,2.16,3.17s-1,3.16-2.16,3.16-2.15-1.42-2.15-3.16S1572.49,202.05,1573.67,202.05Zm25.89-9.49H1582.3v25.31h-17.25V186.23h-4.32v47.46h4.32V224.2h38.83v9.49h4.31V205.22C1608.19,198.22,1604.33,192.56,1599.56,192.56Zm4.32,25.31h-17.26v-19h12.94c2.38,0,4.32,2.84,4.32,6.33Z"/><path class="cls-4" d="M696.4,132.76c8.1.43,14.87-3.53,15.15-8.86s-6-10-14.11-10.43-14.87,3.52-15.15,8.86S688.31,132.32,696.4,132.76Zm.69-12.86c2.69.14,4.8,1.71,4.71,3.47s-2.37,3.1-5,3-4.8-1.71-4.71-3.48S694.41,119.75,697.09,119.9Zm59-6.51-39-2.09L715.74,137l-39-2.09,1.72-32.15-9.76-.52-2.58,48.22,9.76.52.52-9.64,87.8,4.7-.52,9.64,9.76.52L775,127.29C775.35,120.18,766.92,114,756.14,113.39Zm8.38,26.24-39-2.09,1-19.29,29.27,1.57c5.37.28,9.6,3.41,9.41,7Z"/><g class="cls-5"><path class="cls-6" d="M120.42,303h-5V278.24h5Zm10.8,0h-5V278.24h5ZM142,303h-5V278.24h5Zm3.32-33H138.7v-8.24a3.08,3.08,0,0,0-3.32-2.75h-13.3a3.08,3.08,0,0,0-3.32,2.75V270h-6.65c-3.66,0-6.65,2.48-6.65,5.5v30.23c0,3,3,5.49,6.65,5.49a3.39,3.39,0,0,0,6.65,0H138.7a3.39,3.39,0,0,0,6.65,0c3.66,0,6.65-2.47,6.65-5.49V275.49C152,272.47,149,270,145.35,270Zm-21.61-6.87h10V270h-10Zm21.61,42.6H112.11V275.49h33.24Z"/></g><g class="cls-5"><path class="cls-6" d="M952.15,556.45h-5V531.72h5Zm10.8,0h-5V531.72h5Zm10.81,0h-5V531.72h5Zm3.32-33h-6.65v-8.24a3.08,3.08,0,0,0-3.32-2.75h-13.3a3.08,3.08,0,0,0-3.32,2.75v8.24h-6.65c-3.66,0-6.65,2.48-6.65,5.5V559.2c0,3,3,5.49,6.65,5.49a3.39,3.39,0,0,0,6.65,0h19.94a3.39,3.39,0,0,0,6.65,0c3.66,0,6.65-2.47,6.65-5.49V529C983.73,526,980.74,523.47,977.08,523.47Zm-21.6-6.87h10v6.87h-10Zm21.6,42.6H943.84V529h33.24Z"/></g><path class="cls-7" d="M0,507H957.46A483.54,483.54,0,0,1,1441,990.54V1079a0,0,0,0,1,0,0H0a0,0,0,0,1,0,0V507A0,0,0,0,1,0,507Z"/></svg>