<svg id="Capa_1" data-name="Capa 1" xmlns="http://www.w3.org/2000/svg" viewBox="0 0 239.64 96.3"><defs><style>.cls-1,.cls-2{fill:blue;}.cls-2{font-size:83.5px;font-family:BrushScriptMT, Brush Script MT;}.cls-3{letter-spacing:-0.02em;}</style></defs><path class="cls-1" d="M96,40.21A35.17,35.17,0,0,1,66.37,75a7.76,7.76,0,0,0,.09-2.41l-.23-2A30.43,30.43,0,0,0,81.8,62.88,4.42,4.42,0,0,1,81,62c-1.13-1.67.35-3.32.35-4.77s-2.85-1.31-3-2.25c-.36-3.28,2-3.32,3.25-4.59s-1.24-4.13-2.85-3.95-6.19-.75-5.77-4.27c.51-4.29-5.42-3.91-6.27-5.91A5.76,5.76,0,0,1,70.3,29c3.79-1.15,7.54-4.28,7.25-7.76a13.06,13.06,0,0,0-5-9.6,30,30,0,0,0-9.72-2.2c-3.05.12-5.73.81-5.61,2.22.3,3.45,10,4.35,8.4,7.57-.85,1.69-7.24,4.06-6,6.56.78,1.63,2.69.24,2,3.36C61.2,30.56,60,33.26,58,33.44s-3.6-5.07-9-5.24c-2.53-.08-6.09,4-3.07,6.86,1.84,1.75,5.28-2.1,6.29.91.72,2.11-.09,6.56,3.25,8.42,1.22.67,3.08,1.26,4.93,2.21a65,65,0,0,0-10.08,3.16L47,48.87c1.4-1.18,3.68-2,3.1-4.58-.84-3.78-7.35-2.35-11.83-6.87A18.14,18.14,0,0,1,34,25.89a30.79,30.79,0,0,0-3.51,14.32,31.44,31.44,0,0,0,.35,4.68h-.16a10.23,10.23,0,0,0-4.08.86,36,36,0,0,1-.43-5.53,34.92,34.92,0,1,1,69.83,0ZM69.81,50.47l-8.53,4,.13-1.87L66.94,50C66.15,50,65.33,50,64.52,50c-3,0-8.21,1.56-13.91,3.84l-18.3-4.86a6.33,6.33,0,0,0-5,.77l-.9.57a1.44,1.44,0,0,0,0,2.42l11,7.19c-2.62,1.35-5.11,2.73-7.31,4l-5.64-3a3.54,3.54,0,0,0-3-.16l-.54.22a1.44,1.44,0,0,0-.71,2l3.11,5.57h0c-1.17,1-1.84,1.86-1.84,2.44,0,1.75,2.13,2.19,4,2.19C28.82,73.2,73.1,63,73.1,53.71,73.1,51.88,71.85,51,69.81,50.47ZM51.14,68.55l9.74-3.46a.71.71,0,0,1,.94.59l.86,7.37a4.3,4.3,0,0,1-2.44,4.39l-.91.43a1.41,1.41,0,0,1-1.66-.36L50.84,69.7A.72.72,0,0,1,51.14,68.55Z" transform="translate(-20 -3.22)"/><text class="cls-2" transform="translate(72.01 68.09) scale(0.61 1)">Air<tspan class="cls-3" x="96.5" y="0">T</tspan><tspan x="142.29" y="0">ravel</tspan></text></svg>